<?xml version="1.0" encoding="utf-8"?>
<!-- Generator: Adobe Illustrator 23.1.0, SVG Export Plug-In . SVG Version: 6.00 Build 0)  -->
<!DOCTYPE svg PUBLIC "-//W3C//DTD SVG 1.1//EN" "http://www.w3.org/Graphics/SVG/1.1/DTD/svg11.dtd" [
	<!ENTITY ns_extend "http://ns.adobe.com/Extensibility/1.0/">
	<!ENTITY ns_ai "http://ns.adobe.com/AdobeIllustrator/10.0/">
	<!ENTITY ns_graphs "http://ns.adobe.com/Graphs/1.0/">
	<!ENTITY ns_vars "http://ns.adobe.com/Variables/1.0/">
	<!ENTITY ns_imrep "http://ns.adobe.com/ImageReplacement/1.0/">
	<!ENTITY ns_sfw "http://ns.adobe.com/SaveForWeb/1.0/">
	<!ENTITY ns_custom "http://ns.adobe.com/GenericCustomNamespace/1.0/">
	<!ENTITY ns_adobe_xpath "http://ns.adobe.com/XPath/1.0/">
]>
<svg version="1.1" id="vmir_x5F_eng" xmlns:x="&ns_extend;" xmlns:i="&ns_ai;" xmlns:graph="&ns_graphs;"
	 xmlns="http://www.w3.org/2000/svg" xmlns:xlink="http://www.w3.org/1999/xlink" x="0px" y="0px" viewBox="0 0 445.3 172.9"
	 style="enable-background:new 0 0 445.3 172.9;" xml:space="preserve">
<style type="text/css">
	.st0{fill:url(#SVGID_1_);}
	.st1{fill:#FFFFFF;}
</style>
<metadata>
	<sfw  xmlns="&ns_sfw;">
		<slices></slices>
		<sliceSourceBounds  bottomLeftOrigin="true" height="158.6" width="430.7" x="62.1" y="395"></sliceSourceBounds>
	</sfw>
</metadata>
<g>
	
		<linearGradient id="SVGID_1_" gradientUnits="userSpaceOnUse" x1="-54.0325" y1="561.4044" x2="-53.0325" y2="561.4044" gradientTransform="matrix(430.6667 0 0 -430.6667 23278.0859 241864.6719)">
		<stop  offset="0" style="stop-color:#5200AA"/>
		<stop  offset="1" style="stop-color:#AC00FF"/>
	</linearGradient>
	<path class="st0" d="M87.4,7.2h272c43.8,0,79.3,35.5,79.3,79.3v0c0,43.8-35.5,79.3-79.3,79.3h-272c-43.8,0-79.3-35.5-79.3-79.3v0
		C8.1,42.7,43.6,7.2,87.4,7.2z"/>
	<g>
		<path class="st1" d="M247,110.8V62.9c0-2.1,1.7-3.8,3.8-3.8h3.6c2.1,0,3.8,1.7,3.8,3.8v47.9c0,2.1-1.7,3.8-3.8,3.8h-3.6
			C248.7,114.6,247,112.9,247,110.8"/>
		<path class="st1" d="M317.2,113l-11.4-11.3c-3-3-0.9-8.2,3.4-8.2c6.6,0,11.9-5.3,11.9-11.9s-5.3-11.9-11.9-11.9h-18.6
			c-6.6,0-11.9,5.3-11.9,11.9v27.6c0,3-2.4,5.4-5.4,5.4c-3,0-5.4-2.4-5.4-5.4V81.6c0-12.5,10.2-22.7,22.7-22.7h18.6
			c12.5,0,22.7,10.2,22.7,22.7V83c0,7.4-3.8,14-9.6,17.8c-0.7,0.5-0.8,1.5-0.2,2.1c2.5,2.5-1.2-1.3,2.7,2.6c2.1,2.1,2.1,5.5,0,7.6
			C322.7,115.1,319.3,115.1,317.2,113"/>
		<path class="st1" d="M238.9,66.1l-17.7,44.8c-1.1,2.9-4.4,4.3-7.2,3.1c-2.9-1.1-4.3-4.4-3.1-7.2L228.5,62c1.1-2.9,4.4-4.3,7.2-3.1
			C238.6,60,240,63.2,238.9,66.1"/>
		<path class="st1" d="M204.7,88.6l-9,22.3c-1.1,2.9-4.4,4.3-7.2,3.1c-2.9-1.1-4.3-4.4-3.1-7.2l9-22.3c1.1-2.9,4.4-4.3,7.2-3.1
			C204.4,82.5,205.8,85.7,204.7,88.6"/>
		<path class="st1" d="M188.2,66.1l-17.7,44.8c-1.1,2.9-4.4,4.3-7.2,3.1c-2.9-1.1-4.3-4.4-3.1-7.2L177.9,62c1.1-2.9,4.4-4.3,7.2-3.1
			C187.9,60,189.4,63.2,188.2,66.1"/>
		<path class="st1" d="M159.6,59c-2.9-1.1-6.1,0.3-7.2,3.1l-12.8,32.2l-14-32.1c-1.2-2.8-4.5-4.1-7.3-2.9c-2.8,1.2-4.1,4.5-2.9,7.3
			l19.2,44c0,0.1,0.1,0.1,0.1,0.2c0.6,1.3,1.6,2.5,3.1,3c2.9,1.1,6.1-0.3,7.2-3.1l17.7-44.6C163.9,63.3,162.5,60.1,159.6,59"/>
	</g>
</g>
</svg>
